
<?xml version="1.0" standalone="no"?>
<!DOCTYPE svg PUBLIC "-//W3C//DTD SVG 1.1//EN" "http://www.w3.org/Graphics/SVG/1.1/DTD/svg11.dtd" >
<svg xmlns="http://www.w3.org/2000/svg">
    <metadata>
        Created by FontForge 20120731 at Thu Jun  1 17:07:22 2017
        By admin
    </metadata>
    <defs>
        <font id="iconfont" horiz-adv-x="1024" >
            <font-face
                    font-family="iconfont"
                    font-weight="500"
                    font-stretch="normal"
                    units-per-em="1024"
                    panose-1="2 0 6 3 0 0 0 0 0 0"
                    ascent="896"
                    descent="-128"
                    x-height="792"
                    bbox="0 -212 2259 923"
                    underline-thickness="0"
                    underline-position="0"
                    unicode-range="U+0078-E91A"
            />
            <missing-glyph
            />
            <glyph glyph-name=".notdef"
            />
            <glyph glyph-name=".notdef"
            />
            <glyph glyph-name=".null" horiz-adv-x="0"
            />
            <glyph glyph-name="nonmarkingreturn" horiz-adv-x="341"
            />
            <glyph glyph-name="x" unicode="x" horiz-adv-x="1001"
                   d="M281 543q-27 -1 -53 -1h-83q-18 0 -36.5 -6t-32.5 -18.5t-23 -32t-9 -45.5v-76h912v41q0 16 -0.5 30t-0.5 18q0 13 -5 29t-17 29.5t-31.5 22.5t-49.5 9h-133v-97h-438v97zM955 310v-52q0 -23 0.5 -52t0.5 -58t-10.5 -47.5t-26 -30t-33 -16t-31.5 -4.5q-14 -1 -29.5 -0.5
t-29.5 0.5h-32l-45 128h-439l-44 -128h-29h-34q-20 0 -45 1q-25 0 -41 9.5t-25.5 23t-13.5 29.5t-4 30v167h911zM163 247q-12 0 -21 -8.5t-9 -21.5t9 -21.5t21 -8.5q13 0 22 8.5t9 21.5t-9 21.5t-22 8.5zM316 123q-8 -26 -14 -48q-5 -19 -10.5 -37t-7.5 -25t-3 -15t1 -14.5
t9.5 -10.5t21.5 -4h37h67h81h80h64h36q23 0 34 12t2 38q-5 13 -9.5 30.5t-9.5 34.5q-5 19 -11 39h-368zM336 498v228q0 11 2.5 23t10 21.5t20.5 15.5t34 6h188q31 0 51.5 -14.5t20.5 -52.5v-227h-327z" />
            <glyph glyph-name="gouwu" unicode="&#xe604;"
                   d="M735 -4h-447q-7 0 -12 5t-4 12l37 432q1 7 5.5 11t10.5 4h380q6 0 10.5 -4.5t5.5 -10.5l30 -432q1 -7 -4 -12t-12 -5zM305 28h413l-28 400h-350zM645 489h-32q0 27 -11.5 46.5t-28.5 28.5t-31.5 13t-27 4t-27.5 -4t-32 -13t-28 -28.5t-11 -46.5h-32q0 33 12.5 58t33 39
t42 20.5t42.5 6.5t43 -6.5t42 -20.5t33 -39t13 -58zM366 382.5q0 14.5 10 24.5t24.5 10t24.5 -10t10 -24.5t-10 -24.5t-24.5 -10t-24.5 10t-10 24.5zM590 382q0 15 10 25t24.5 10t24.5 -10t10 -24.5t-10 -24.5t-24.5 -10t-24.5 10t-10 24v0z" />
            <glyph glyph-name="coupon" unicode="&#xe62a;"
                   d="M312 538l-196 91v-604q0 -15 11.5 -25.5t26.5 -10.5h716q15 0 26.5 10.5t11.5 25.5v604l-196 -91q-83 -39 -200 -39t-200 39zM876 47q0 -13 -10 -22.5t-25 -9.5h-658q-15 0 -25 9.5t-10 22.5v530l180 -80q76 -34 184 -34t184 34l180 80v-530zM870 780h-716
q-15 0 -26.5 -11t-11.5 -26v-65l196 -91q83 -38 200 -38t200 38l196 91v65q0 15 -11.5 26t-26.5 11zM876 697l-180 -84q-76 -27 -184 -27t-184 27l-180 84v25q0 10 10 17.5t25 7.5h658q15 0 25 -7.5t10 -17.5v-25zM651 417h-56l-61 -84q-2 -4 -10 -14h-21q-5 8 -8 12l-65 86
h-52l75 -98h-115v-40h148v-40h-148v-40h148v-110h42v110h158v40h-158v40h158v40h-112z" />
            <glyph glyph-name="baoyou" unicode="&#xe606;"
                   d="M511.5 832q-61.5 0 -149 -18t-159 -36.5t-93.5 -18.5v-493q3 -24 11 -49.5t35 -66.5t67.5 -76.5t115.5 -72.5t172 -61q98 24 173 61t115.5 72.5t67 76.5t35 66.5t10.5 49.5v493q-21 0 -92.5 18.5t-159 36.5t-149 18zM864 280q-3 -21 -10 -43.5t-30.5 -58.5t-59 -67
t-101.5 -63.5t-152 -53.5q-85 21 -151 53.5t-102 63.5t-59.5 67t-30.5 58.5t-10 43.5v434q20 0 83 16t140 32t130.5 16t130.5 -16t140 -32t82 -16v-434zM536 615h-111v9q0 9 -4.5 15.5t-11.5 6.5h-11q-6 0 -10.5 -6.5t-4.5 -15.5v-9h-124q-10 0 -13 -16v-1q-1 -4 -1 -9v-6
v-7v-162v-7v-6v-7v-160v-8v-5v-8q0 -6 4 -11q4 -8 10 -8h3h0.5h0.5h4h1h13q4 -17 14 -28t22.5 -11t22.5 11t14 28h174h0.5h0.5h4h1h2q4 0 7 4q8 5 8 15v382q0 7 -5 12q-4 8 -10 8zM383 238h-98v145h98v-145zM383 426h-98v145h98v-145zM511 238h-86v145h86v-145zM511 426h-86
v145h86v-145zM734 454h-18v71q0 38 -18 65t-43 27l-74 -1v-428q0 -9 5.5 -14.5t13.5 -5.5h4q8 0 13.5 5.5t5.5 14.5v383l26 1q13 0 21.5 -13.5t8.5 -33.5v-3h1v-68h-1v-45l51 -1q12 0 21 -13.5t9 -33.5v-80q0 -21 -7 -34t-19 -13h-57v0h-29v-2v-2q0 -23 11 -39.5t27 -16.5
q15 0 26 15h22q26 0 43.5 27t17.5 65v81q0 38 -17.5 65t-43.5 27zM648 234q-3 -11 -3 -22q0 -23 11 -39.5t27 -16.5t27 16.5t11 39.5q0 11 -3 22h-70z" />
            <glyph glyph-name="01" unicode="&#xe603;"
                   d="M65 159v283h56l116 -189v189h53v-283h-57l-115 185v-185h-53zM350 159v283h210v-48h-152v-63h142v-47h-142v-77h158v-48h-216zM655 159l-68 283h58l43 -194l52 194h68l50 -198l43 198h58l-69 -283h-61l-56 212l-56 -212h-62z" />
            <glyph glyph-name="yuanjiaojuxing2" unicode="&#xe61b;" horiz-adv-x="2268"
                   d="M1747 -212h-1235q-104 0 -199 40.5t-163.5 109t-109 163.5t-40.5 199t40.5 199t109 163.5t163.5 109t199 40.5h1235q104 0 199 -40.5t163.5 -109t109 -163.5t40.5 -199t-40.5 -199t-109 -163.5t-163.5 -109t-199 -40.5zM741 580h-70v-453h-2l-294 453h-79v-559h70v449h2
l292 -449h81v559zM1250 84h-314v193h291v63h-291v178h312v62h-386v-559h388v63zM1921 580l-114 -465h-2l-123 465h-81l-125 -465h-2l-109 465h-76l143 -559h77l130 470h1l128 -470h77l150 559h-74z" />
            <glyph glyph-name="new" unicode="&#xe632;" horiz-adv-x="2253"
                   d="M0 812v-1024h2253v1024h-2253zM681 1h-79l-308 461v-461h-75v586h80l308 -460v460h74v-586v0zM1251 1h-438v586h424v-69h-346v-180h324v-68h-324v-200h360v-69zM1898 1h-75l-123 447q-15 53 -19 68q-9 -40 -17 -68l-124 -447h-80l-155 586h79l90 -384q14 -62 24 -120
q24 98 27 108l111 396h94l84 -297q31 -110 45 -207q12 56 30 128l92 376h78z" />
            <glyph glyph-name="meironghufu" unicode="&#xe61f;"
                   d="M937 404h-27q0 -109 -53.5 -201t-146 -146t-201.5 -54t-201 54t-146 146t-54 201h-27q0 -114 55.5 -211t151 -155t208.5 -61v-102h-239v-27h506v27h-240v102q113 3 208.5 61t150.5 155t55 211zM127 388h40q8 -135 107 -228.5t235.5 -93.5t235.5 93.5t107 228.5h39
q6 0 10 4t4 9.5t-4 9.5t-10 4h-39q-2 92 -48 169.5t-124.5 122.5t-170.5 45t-170 -45t-124.5 -122.5t-48.5 -169.5h-39q-5 0 -9 -4t-4 -9.5t4 -9.5t9 -4zM509 725q131 0 224 -92.5t93 -223.5t-93 -224t-224 -93t-223.5 93t-92.5 224t92.5 223.5t223.5 92.5zM519 642l18 -19
l-235 -236l-19 19zM592 569l-236 -236l-19 19l236 236z" />
            <glyph glyph-name="peishi" unicode="&#xe62c;"
                   d="M868 380q-5 73 -20 188q-2 24 -12.5 52.5t-35 65.5t-59 66.5t-91.5 49.5t-127 20q-69 0 -127 -17.5t-95.5 -44t-65 -61.5t-40.5 -67t-18 -64q-5 -27 -8.5 -56t-5 -48t-3 -38.5t-2.5 -22.5l-66 63q-1 1 -3 1.5t-5.5 2t-5.5 1t-5.5 -3t-5.5 -4.5l-2 -3q-58 -128 -61 -133
q-6 -12 1 -29q2 -6 10 -11.5t11 -5.5h30v0q-12 -17 -21.5 -41.5t-9.5 -40.5q0 -99 99 -149v0q59 -31 185 -47t214 -12v0q114 0 210 20.5t158 53.5t96.5 74t34.5 83q0 31 -12.5 57.5t-29.5 42.5t-40 29t-40 19t-34 10h2zM216 553q1 5 3 13.5t12 32t23.5 44.5t38.5 47.5t55 45
t75.5 31.5t98.5 13q55 0 101.5 -14.5t77 -38t54 -54t36 -60t18.5 -60.5q21 -115 21 -233q0 -20 -89.5 -45t-159.5 -31q-36 -4 -67.5 -4t-44.5 2l-14 2l17 35q5 12 -2 29q-2 5 -6.5 9t-8.5 5l-4 2h-166l-88 41zM63 319q-13 -1 -14 2l4 13l27 66q8 15 11 15t10 -9v0l88 -80
q8 -8 11 -10l12 -6l51 -19h159q5 0 7.5 -1.5t3.5 -3.5v-1l-83 -140q0 -1 -0.5 -2t-3 -3t-6 -1.5t-6.5 2t-4 2.5l-2 2q-37 89 -45 100q-2 4 -32 26t-40 30q-7 7 -11 8l-14 4l-123 6v0zM533 33q-80 -3 -197.5 10.5t-158.5 34.5v0q-58 25 -82.5 57.5t-24.5 63.5q0 16 13 40.5
t28 40.5l67 -2q58 -27 70 -44q5 -8 27 -60t27 -58q4 -6 8 -10.5t7 -6.5l2 -1l24 -3q13 1 23 6q3 1 6 5t5 6l1 3l54 83q89 -2 154 2q51 4 114 17.5t116 37.5t53 49q0 7 -1 31q5 -2 21 -7.5t25.5 -9.5t23.5 -13t22 -18.5t14 -26t5 -36.5q-1 -45 -67 -90t-170.5 -73t-208.5 -28
v0v0z" />
            <glyph glyph-name="nvzhuang" unicode="&#xe62b;"
                   d="M964 33q-9 62 -48 143q-34 69 -83 128q-60 73 -140 125q-15 13 -25 33q-8 16 -10 34v0h1l-1 1q-3 30 11 62q34 74 57.5 150.5t21.5 106.5l-1 21l-164 42l-9 -22q-11 -24 -31 -48t-40 -25h-1q-35 0 -75 75l-11 20l-162 -48l1 -22q0 -12 2 -31.5t15 -71t34 -97.5
q38 -80 40 -117q2 -47 -46 -98q-18 -19 -60 -54q-25 -22 -39 -34t-35 -34.5t-36 -44.5q-57 -81 -70 -195v-2l-1 -1q0 -26 24 -48q50 -47 189 -33q21 2 33.5 -1.5t32.5 -14.5q22 -11 37.5 -17.5t52.5 -13.5t84 -7q37 0 74.5 13.5t54 24.5t29.5 21q10 5 25.5 8t56.5 0.5
t87 -17.5q47 -16 81 6q17 11 28 30t13 28.5t3 17.5l1 4l-1 3v0zM313 789l76 23q53 -87 117 -84q62 2 108 85l75 -20q-16 -88 -71 -211q-14 -30 -17 -60q-48 -37 -106.5 -36.5t-96.5 39.5q-8 38 -41 108q-35 74 -44 156zM890 -2q-12 -8 -34 -1q-87 29 -157 21q-38 -4 -59 -16
l-2 -2l-3 -2q-5 -5 -16 -13t-43.5 -21t-63.5 -13q-41 0 -72 5.5t-44 10.5t-32 15q-44 23 -79 23q-9 0 -18 -1q-94 -9 -134 11q-14 6 -17 14q5 43 17.5 79.5t26 61t36.5 51t37.5 39.5t42.5 37q45 37 65 58q47 50 58 99q44 -25 98 -25h8q55 2 103 30q4 -11 9 -22
q17 -34 42 -53l1 -1l1 -1q73 -47 128 -113q44 -53 75 -116q32 -66 44 -124q-5 -23 -18 -31v0z" />
            <glyph glyph-name="zhengpin" unicode="&#xe608;"
                   d="M509.5 -128q-8.5 0 -17.5 1q-7 2 -18.5 4.5t-40.5 13.5t-57 25.5t-65 42t-69 61t-64 85t-54.5 111t-36.5 141.5t-14 175v148q0 42 32 71q31 28 74 26q6 -1 24 -1q65 0 115 12q55 13 128 83q7 6 10 8q22 14 53 14t55 -15q6 -4 25 -19q77 -62 115 -71q50 -12 115 -12
q17 0 23 1h7q39 0 67 -26q32 -29 32 -71v-148q0 -93 -14 -175t-36.5 -141.5t-55 -111t-64.5 -85t-69 -61t-65 -42t-57.5 -25.5t-41 -13.5t-18.5 -4.5q-9 -1 -17.5 -1zM173 741q-25 0 -44 -16q-20 -18 -20 -45v-148q0 -112 21.5 -207t52.5 -157t74.5 -111t80 -75t77 -44.5
t56.5 -22.5t27 -6q12 -2 22.5 0t27 6t57 22.5t77.5 44.5t81 75.5t75.5 111t52.5 156.5t21 207v148q0 27 -20 45q-18 16 -43 16h-5q-4 -1 -25 -1q-69 0 -123 13q-46 11 -129 78q-18 14 -22 17q-16 10 -35.5 10t-35.5 -10l-3 -3q-81 -77 -145 -92q-54 -13 -123 -13
q-21 0 -27 1h-3zM300 611h422q19 -2 21 -21q-2 -21 -21 -23h-177v-139h173q16 0 19 -21q-3 -21 -19 -21h-173v-174h198q17 0 19 -19q-2 -19 -19 -19h-462q-21 0 -21 19t21 19h52v271q2 19 23 21q19 -2 21 -21v-271h124v355h-201q-19 2 -21 23q2 19 21 21z" />
            <glyph glyph-name="shijian1" unicode="&#xe66b;"
                   d="M991 383q0 -108 -39 -199t-105 -151.5t-152.5 -94t-181.5 -33.5q-94 0 -181 36t-152.5 98t-105 152t-39.5 192q0 97 38 185.5t102 152.5t152.5 102t185.5 38t185.5 -38t152.5 -102t102 -152.5t38 -185.5v0zM513 801q-114 0 -210 -56t-152 -152t-56 -210t56 -210t152 -152
t210 -56t210 56t152 152t56 210t-56 210t-152 152t-210 56v0zM722 353h-209q-13 0 -21.5 8.5t-8.5 21.5v239q0 22 6 37.5t15 19t18 0t15 -18.5t6 -38v-209h179q27 0 43 -9.5t16.5 -20.5t-15 -20.5t-44.5 -9.5v0z" />
            <glyph glyph-name="iconfontcanyin" unicode="&#xe600;"
                   d="M989 559q0 11 -7.5 18.5t-18.5 7.5h-106q-22 36 -49 70q-64 79 -141 121.5t-157 42.5t-157 -42.5t-141 -121.5q-27 -33 -49 -70h-103q-11 0 -19 -7.5t-8 -18.5q0 -55 3 -98t10.5 -92.5t23 -88.5t39 -76.5t60.5 -67t85 -49.5l-3 -98q0 -11 7.5 -19t18.5 -8h453q11 0 19 8
t7 19l-3 92q45 17 80.5 41.5t60 52.5t42.5 64.5t28 71.5t16 79.5t7.5 82.5t1.5 86zM510.5 767q79.5 0 154 -51t129.5 -131h-568q55 80 130 131t154.5 51zM703 15h-399l2 54q87 -24 205 -24q108 0 191 20l1 -50v0zM511.5 97q-86.5 0 -152 12.5t-112 38.5t-77.5 61t-49 86
t-26 107t-9 131h851q-1 -75 -9 -131t-26 -107t-49 -86t-77.5 -61t-112 -38.5t-152 -12.5zM562 670l48 -24q5 -3 10 -3q15 0 22 13q4 9 1 18.5t-12 13.5l-48 24q-9 5 -18 2t-13.5 -12t-1.5 -18.5t12 -13.5zM402 651q7 0 13 4l38 25q8 6 10 15.5t-3.5 18t-15 10.5t-18.5 -4
l-37 -26q-8 -5 -10 -15t3 -18q7 -10 20 -10z" />
            <glyph glyph-name="wodequanma" unicode="&#xe918;"
                   d="M903 681l-298 172q-30 17 -72 17t-71 -17l-299 -172q-29 -17 -50 -53.5t-21 -70.5v-346q0 -34 21 -70.5t50 -53.5l299 -172q29 -17 71 -17t72 17l298 172q30 17 51 53.5t21 70.5v346q0 34 -21 70.5t-51 53.5zM947 211q0 -26 -17 -56t-41 -44l-298 -172q-23 -14 -57.5 -14
t-58.5 14l-298 172q-23 14 -40.5 44t-17.5 56v346q0 26 17.5 56t40.5 44l298 172q24 14 58.5 14t57.5 -14l298 -172q24 -14 41 -44t17 -56v-346zM711 507l-73 68q-23 21 -53.5 20t-52.5 -24l-197 -212l-3 -186l184 16l198 213q21 23 20 53.5t-23 51.5zM694 421l-191 -205
l-143 -13l2 145l191 205q13 14 32.5 14.5t33.5 -12.5l73 -68q14 -13 14.5 -32.5t-12.5 -33.5zM634 505.5q-17 15.5 -40 15t-38.5 -17.5t-14.5 -40t17.5 -38.5t39.5 -14.5t38.5 17.5t15 39.5t-17.5 38.5zM616.5 446.5q-7.5 -8.5 -19 -9t-20 7.5t-9 19.5t7.5 19.5t19.5 8.5
t19.5 -7t8.5 -19t-7 -20z" />
            <glyph glyph-name="zhengpin1" unicode="&#xe65f;"
                   d="M875 727l-335 108q-28 8 -56 0l-335 -108q-21 -6 -34 -24t-13 -40v-235q0 -102 46.5 -193.5t129.5 -152.5l193 -140q19 -13 41 -13q23 0 41 13l193 140q83 61 129.5 152.5t46.5 193.5v235q0 22 -13 40t-34 24zM163 684l335 108q7 2 14 2t14 -2l335 -108q16 -5 16 -21v-12
h-730v12q0 16 16 21zM877 428v0q0 -91 -42 -173t-116 -136l-193 -141q-14 -10 -28 0l-193 141q-74 54 -116 136t-42 173v177h730v-177v0zM775 540l-326 -300l-137 177q-6 7 -15.5 8.5t-16.5 -4.5t-8.5 -15t4.5 -17l152 -196q6 -8 16 -9h2q9 0 15 6l345 317q7 6 7.5 15.5
t-6 16.5t-16 7t-16.5 -6z" />
            <glyph glyph-name="meizhuang1" unicode="&#xe602;"
                   d="M334 -97q-67 0 -98 16q-23 12 -27 30v6l54 457l-212 264q-9 12 -2 25q21 38 67 76q92 75 221 81h15q123 0 218 -81q20 -18 38 -38.5t24 -30t8 -12.5q7 -14 -2 -25l-206 -262l50 -455q2 -11 -7 -19q-6 -5 -16.5 -11t-45 -13.5t-79.5 -7.5zM255 -40q22 -12 79 -12
q66 0 101 16l-49 449q-1 9 4 16l202 257q-23 32 -53 58q-81 69 -187 69q-4 0 -13 -1q-114 -5 -194 -70q-28 -23 -48 -50l208 -259q6 -8 5 -17zM367 402v0h-42q-17 0 -22 17l-49 185q-2 9 3 17.5t14 10.5t17 -2.5t10 -13.5l45 -169h6l39 172q2 9 10 14t17.5 3t14.5 -10t2 -17
l-43 -190q-4 -17 -22 -17zM297 361h99v-46h-99v46zM925 -94h-273q-9 0 -15.5 7t-6.5 16l2 501q0 9 7 16t16 7h270q10 0 16.5 -7t6.5 -16v-501q0 -10 -6.5 -16.5t-16.5 -6.5zM675 -48h228v455h-225zM831.5 33q-9.5 0 -16.5 7t-7 16v283q0 9 7 15.5t16.5 6.5t16 -6.5
t6.5 -15.5v-283q0 -9 -6.5 -16t-16 -7zM874 410h-161q-11 0 -17.5 8t-5.5 18l1 10v246q0 3 1 6l3 9t9 18.5t15.5 23.5t22.5 21t31 14q21 4 45.5 21.5t39.5 32.5q10 11 24 5q15 -5 15 -21v-389q-1 -9 -7.5 -16t-15.5 -7zM737 456h114v317q-37 -27 -69 -34q-16 -3 -28 -19
t-17 -32v-232z" />
            <glyph glyph-name="shuma" unicode="&#xe67f;"
                   d="M902 684h-151l-55 114q-8 15 -25 16h-3h-305q-9 0 -17 -5q-7 -4 -11 -12l-56 -113h-162q-49 -2 -82.5 -37t-33.5 -84v-460q0 -50 35.5 -85.5t85.5 -35.5h780q50 0 85.5 34.5t35.5 84.5v462q0 50 -35.5 85.5t-85.5 35.5zM964 103q0 -26 -18.5 -44.5t-43.5 -18.5h-780
q-25 0 -43.5 18.5t-18.5 44.5v458q0 26 18.5 44.5t43.5 18.5h189q4 0 12 14v1l57 113h272l55 -112q8 -16 13 -16h182q25 0 43.5 -18.5t18.5 -44.5v-458v0zM801 556q-13 0 -22 -9t-9 -21.5t9 -21.5t22 -9t22 9t9 21.5t-9 21.5t-22 9zM512.5 559q-92.5 0 -158.5 -66
t-66 -158.5t66 -158.5t158.5 -66t158.5 66t66 158.5t-66 158.5t-158.5 66zM511.5 172q-66.5 0 -114 47.5t-47.5 114t47.5 114t114 47.5t114 -47.5t47.5 -114t-47.5 -114t-114 -47.5z" />
            <glyph glyph-name="wenti" unicode="&#xe680;"
                   d="M979 377q0 93 -36.5 178.5t-98 147.5t-147 98.5t-179 36.5t-179 -36.5t-147.5 -98.5t-98.5 -147.5t-36.5 -179t36.5 -179t98.5 -147t147.5 -98t179 -36.5t179 36.5t147 98t98 147t36.5 179.5v0zM926 377q0 -113 -58 -209q-113 9 -213 38.5t-175.5 73t-128.5 86t-97 90.5
q24 51 59 93q42 -38 205 -45q105 0 230.5 -15.5t172.5 -50.5q5 -30 5 -61v0zM913 477q-51 24 -148 38t-150.5 16.5t-95.5 2.5v0q-151 6 -186 37q47 47 107.5 79.5t120.5 46t100 18.5t77 5q65 -42 110.5 -105t64.5 -139v1zM307 725q97 59 211 59q88 0 168 -36q-41 -3 -83 -11
t-93.5 -24.5t-102.5 -47t-93 -71.5q-21 33 -7 131v0zM274 703q-9 -96 20 -131q-36 -42 -62 -91q-41 49 -68 96q42 74 110 126v0zM175 158q-61 95 -64 208q39 2 77 -15q-18 -88 -13 -193v0zM111 395q4 79 37 151q30 -48 71 -95q-15 -34 -24 -71q-41 16 -84 15v0v0zM208 113
q-12 124 7 224q82 -53 124 -190q3 -14 9.5 -34.5t29.5 -62.5t53 -71q-134 29 -223 134v0zM368 156q-48 154 -146 210q8 32 19 60q45 -48 99 -90t128.5 -84.5t172.5 -72t208 -39.5q-56 -79 -143 -125t-188 -46q-13 0 -26 1q-26 15 -48.5 40t-35.5 47t-23.5 48t-13 35t-3.5 16
v0zM368 156z" />
            <glyph glyph-name="xiangbao" unicode="&#xe681;"
                   d="M979 39l-64 532q-4 31 -28.5 51.5t-56.5 20.5h-84v1q0 97 -68 164.5t-166.5 67.5t-166 -67.5t-67.5 -164.5v-1h-84q-32 0 -56.5 -21t-28.5 -51l-64 -532q-7 -43 20 -73q23 -27 59 -27h776q36 0 59 27q27 30 20 73v0zM336 644q0 73 51 123t125 50t125 -50t51 -123v-1h-352
v1zM167 563q1 9 9 15.5t18 6.5h636q10 0 18 -6.5t9 -14.5l13 -111l-358 -120l-358 120l13 110v0zM915 4q-6 -7 -15 -7h-776q-9 0 -15 7q-9 10 -6 27l43 363l357 -120q4 -1 9 -1t9 1l356 120l44 -363q3 -17 -6 -27v0zM600 466q0 12 -8.5 20.5t-20.5 8.5h-118
q-12 0 -20.5 -8.5t-8.5 -20.5t8.5 -20.5t20.5 -8.5h118q12 0 20.5 8.5t8.5 20.5z" />
            <glyph glyph-name="jiantouxia" unicode="&#xe641;"
                   d="M718 192l-22 21q-10 11 -21 0l-132 -132v693q0 6 -4.5 10.5t-10.5 4.5h-30q-7 0 -11 -4.5t-4 -10.5v-693l-133 133q-11 11 -21 0l-22 -21q-10 -11 0 -22l189 -188q8 -8 18 -2q9 -4 16 3l188 187q10 11 0 21z" />
            <glyph glyph-name="meizhuang2" unicode="&#xe623;" horiz-adv-x="1025"
                   d="M293 -128h-159q-53 0 -91 37.5t-38 91.5v414q0 52 38 90t91 38h159q53 0 91 -38t38 -90v-414q0 -54 -38 -91.5t-91 -37.5zM134 499q-35 0 -59.5 -25t-24.5 -59v-414q0 -35 24.5 -59.5t59.5 -24.5h159q34 0 59.5 24.5t25.5 59.5v414q0 34 -25.5 59t-59.5 25h-159zM315 497
h-3q-9 1 -14.5 8t-5.5 16q12 182 -60 275q-29 38 -66 54q-50 -30 -59 -170q-6 -81 2 -158q1 -9 -4.5 -16.5t-14.5 -8t-16.5 5t-7.5 14.5q-9 80 -4 165q13 180 95 212q7 3 14 2q7 -3 16.5 -7t33.5 -21t45 -42q37 -47 56 -115q22 -83 14 -194q0 -8 -6.5 -14t-14.5 -6z
M119.5 22q-6.5 -6 -16 -6t-15.5 6t-6 16v339q0 9 6 16t15.5 7t16 -7t6.5 -16v-339q0 -10 -6.5 -16zM847 497h-255q-13 0 -19 11l-149 273q-10 18 7 29q125 83 289 83t288 -83q17 -11 7 -29l-148 -273q-6 -11 -20 -11zM605 541h230l131 243q-109 65 -246.5 65t-245.5 -65z
M811 -128h-189q-34 0 -58.5 23t-24.5 55v1l48 523q1 27 19.5 47t45.5 20h130q26 0 45 -20t19 -47l49 -523v-1q0 -32 -24.5 -55t-59.5 -23zM832 360h-232q-9 0 -15 6t-6 15.5t6 15.5t15 6h232q9 0 16 -6t7 -15.5t-7 -15.5t-16 -6zM583 -51q0 -14 11.5 -23t27.5 -9h189
q16 0 28 9t12 23l-48 522v2q0 10 -6.5 17t-14.5 7h-130q-8 0 -14.5 -7t-6.5 -17v-2zM688 498q-18 0 -21 18l-21 109q-1 8 4 16t14 9.5t16.5 -3.5t10.5 -14l19 -109q1 -8 -4 -16t-14 -9q-1 -1 -4 -1zM741 498q-2 0 -5 1q-9 1 -14 9t-3 16l20 109q2 9 9.5 14t16.5 3.5t14 -9.5
t3 -16l-19 -109q-4 -18 -22 -18z" />
            <glyph glyph-name="neiyi-copy" unicode="&#xe638;"
                   d="M1002 319q-13 45 -27 75q-11 23 -27 79q-12 42 -21 137q-3 33 -4.5 50t-5.5 44t-9 42t-12 32.5t-17.5 28.5t-24.5 17q-26 12 -44 12q-37 0 -57 -31q-10 -17 -10 -39t10 -41q52 -95 80.5 -175.5t19.5 -97.5q-6 -9 -21 -9h-16q-4 0 -12.5 0.5t-12.5 0.5q-65 0 -130 -34
q-36 -19 -70 -61q-15 -17 -21 -23t-19 -11.5t-31 -5.5t-25 4.5t-19 21.5q-27 37 -58 58q-53 37 -140 37q-21 0 -53 -3q-12 -1 -34 -1q-11 0 -15 1q0 1 0.5 2t0.5 2l2 4q0 2 9 49.5t22 111.5t22 99q9 33 5.5 63t-16.5 48q-18 22 -41 22q-34 0 -56 -42q-17 -32 -19.5 -68
t2.5 -63q4 -46 1 -68q-1 -12 -2 -30.5t-1 -22.5q-1 -38 -6 -57.5t-21 -34.5q-42 -40 -61 -114t-12 -173q3 -42 18 -81.5t40.5 -72.5t66 -52.5t88.5 -19.5q66 0 142 37q34 18 60.5 39.5t40.5 38.5t25 40.5t14.5 35t8.5 30.5q9 -42 31 -83q31 -61 100.5 -100.5t145.5 -39.5
q80 0 140 44q52 38 75.5 100t21.5 124t-21 124zM803 752q-6 11 -1 23q4 4 8 4q8 0 21 -6q26 -12 39 -163q-27 69 -67 142zM174 758q2 5 3 6q8 -23 -2 -55q-2 -7 -6 -25l-6 -27v2q-3 26 -1.5 52.5t12.5 46.5zM891 15q-45 -33 -106 -33q-60 0 -115.5 31.5t-78.5 78.5
q-25 49 -30 86q-2 10 -3.5 15t-6.5 14t-14.5 13.5t-22.5 4.5q-8 0 -13 -1q-17 -3 -27.5 -14t-14 -21.5t-6.5 -26.5q-5 -21 -9.5 -34t-16.5 -34.5t-35 -40.5t-57 -37q-66 -31 -117 -31q-69 0 -110 51t-47 123q-6 84 8.5 147t47.5 94l2 2l2 1q1 -5 5 -9q17 -23 64 -23
q5 0 17.5 1t20.5 1q31 2 48 2q71 0 109 -26q25 -18 44 -46q12 -16 20 -24t27 -16.5t44 -8.5q22 0 39.5 5t32 15.5t21.5 17.5t20 21q26 33 54 48q52 28 103 28q14 0 21 -2q4 0 10 -0.5t8 -0.5q47 0 69 33q2 3 2 5q9 -28 20 -55q9 -14 24 -66q18 -52 21 -104t-15 -102.5
t-59 -81.5v0z" />
            <glyph glyph-name="paixu-copy" unicode="&#xe60d;"
                   d="M870 207q-25 12 -37 0l-155 -177v782q0 5 -4.5 10t-10.5 5h-22q-5 0 -10 -5t-5 -10v-856q0 -5 5 -10t10 -5h22v0q15 0 22 8l192 221q13 27 -7 37zM383 827h-22v0q-4 0 -11.5 -4t-10.5 -4l-192 -221q-12 -25 0 -37q24 -12 37 0l147 177v-782q0 -5 4.5 -10t10.5 -5h22
q6 0 10.5 5t4.5 10v856q7 3 8 6.5t-1.5 6t-6.5 2.5z" />
            <glyph glyph-name="meishi1" unicode="&#xe642;" horiz-adv-x="1323"
                   d="M1173 171h-23q-15 174 -133.5 303t-289.5 158q41 38 41 93q0 53 -37.5 90.5t-90.5 37.5t-90.5 -37.5t-37.5 -90.5q0 -55 41 -93q-171 -29 -289.5 -158t-133.5 -303h-23q-45 0 -76 -31.5t-31 -75.5v-43q0 -44 31 -75t76 -31h1066q45 0 76 31t31 75v43q0 44 -31 75.5
t-76 31.5zM640 811q35 0 60 -25t25 -60.5t-25 -60.5t-60 -25t-60 25t-25 60.5t25 60.5t60 25zM640 597q120 0 224 -56.5t168.5 -154t74.5 -215.5h-127q-4 75 -38 141.5t-91 114.5h-40v-23q55 -42 88.5 -102.5t38.5 -130.5h-765q10 118 74.5 215.5t168.5 154t224 56.5z
M1237 21q0 -26 -18.5 -45t-45.5 -19h-1066q-27 0 -45.5 19t-18.5 45v43q0 26 18.5 45t45.5 19h1066q27 0 45.5 -19t18.5 -45v-43z" />
            <glyph glyph-name="xiezi" unicode="&#xe60f;"
                   d="M971 169q-34 31 -104 70q-4 2 -30 18t-37 21.5t-32 11t-37 3.5q-5 0 -10 -2q-4 -2 -7 -4q-26 -14 -51 -18t-45 -1t-42.5 18t-37 27.5t-35 39t-30 40.5t-28.5 43.5t-24 37.5q-76 114 -144 201q-2 3 -15.5 21t-19 25t-18.5 21.5t-22.5 22.5t-22 16.5t-25.5 12.5
q-37 13 -94 -57q-72 -89 -53 -226q4 -30 22 -84t22 -70q35 -141 39 -350q0 -13 9.5 -22.5t22.5 -9.5h101q12 0 20 9.5t8 22.5v333q9 -5 17.5 -11t16 -14.5t12 -13t12.5 -15t10 -13.5q26 -31 67 -106.5t72 -109.5q28 -31 64 -50t72.5 -25t77.5 -7.5t80 1.5q4 0 26.5 0.5t32 1
t32.5 2t35.5 4t33 6t33.5 9.5t27.5 13t25 17.5t17.5 23.5q29 52 -44 116v0zM938 68q-18 -8 -40 -14t-38.5 -9t-46.5 -5t-41.5 -2h-46.5h-39q-33 0 -59 1q-52 2 -96 38t-70 87q-25 47 -40.5 74.5t-43 64.5t-56.5 64q-49 45 -90 51q-16 2 -29.5 -6.5t-13.5 -24.5v-348h-36
q-3 128 -15.5 227t-47.5 182q-18 43 -23 87.5t7 89t42 78.5q12 14 27 26q7 -5 26 -24q24 -24 49.5 -54.5t44 -54t45.5 -63.5t39 -58.5t42 -65.5t38 -59q27 -42 61.5 -74t75.5 -52t88 -19.5t92 25.5q8 1 20.5 -5t28 -16t17.5 -11q27 -14 59 -33q47 -29 74 -56
q17 -17 16.5 -24t-20.5 -17z" />
            <glyph glyph-name="nanzhuang" unicode="&#xe65e;" horiz-adv-x="1047"
                   d="M738 802q2 0 8 -1l9 -1l9 2h5q15 0 26 -13l155 -269l2 -2q8 -11 7 -24t-10 -19l-100 -73q-4 -2 -9 -3l-46 -8v-359q0 -23 -16.5 -39t-38.5 -16h-441q-22 0 -38.5 16t-16.5 39v359l-46 7q-5 1 -9 4l-100 73q-8 5 -10 17q-1 13 7 26l2 2l1 2l154 267q11 13 26 13h5l12 -2
l9 2h4h31q28 -39 80 -62.5t114 -23.5t114 23.5t80 62.5h21zM739 857h-55q-12 -37 -57 -61.5t-104 -24.5t-104 24.5t-57 61.5h-64q-4 0 -15 -1q-7 1 -15 1q-45 0 -72 -38l-155 -269q-22 -30 -17.5 -65t32.5 -55l100 -72q14 -11 32 -14v-312q0 -46 32.5 -78t77.5 -32h441
q45 0 77.5 32t32.5 78v312q18 3 32 14l100 72q28 20 32.5 55t-17.5 65l-155 269q-27 38 -73 38q-7 0 -15 -1q-10 1 -14 1v0v0z" />
            <glyph glyph-name="3" unicode="&#xe6ae;"
                   d="M656 736l202 -202q10 -10 24.5 -10t24.5 10t10 24t-10 24l-261 261q-10 10 -24 10t-24 -10q-9 -9 -10 -21v-4v-877q0 -14 10 -24t24 -10t24 10t10 24v795zM347 -83l-259 260q-10 10 -10 24t10 24.5t24 10.5t24 -10l202 -202v794q0 14 10 24.5t24.5 10.5t24.5 -10.5
t10 -24.5v-877q0 -14 -10 -24.5t-25 -10.5q-14 0 -25 11z" />
            <glyph glyph-name="jujia" unicode="&#xe61a;"
                   d="M294 -30l38 37q8 9 8 20.5t-8 20t-20 8.5t-20 -8l-38 -38q-8 -8 -8 -20t8 -20.5t20 -8.5t20 9zM749.5 -39q11.5 0 20 8.5t8.5 20.5t-8 20l-38 38q-8 8 -20 8t-20.5 -8.5t-8.5 -20t9 -20.5l37 -37q9 -9 20.5 -9zM540 -20q0 12 -8 20.5t-20 8.5t-20.5 -8.5t-8.5 -20.5v-85
q0 -12 8.5 -20.5t20.5 -8.5t20 8.5t8 20.5v85zM115 280h114q13 -45 39 -83q69 -101 188.5 -124t220.5 45q88 60 118 162h114q19 0 32 13t13 32v205q0 28 -25 41l-387 237v1v85q0 12 -9 20.5t-21 8.5t-21 -8.5t-9 -20.5v-85v-1l-387 -237q-25 -13 -25 -41v-205q0 -19 13 -32
t32 -13v0zM640 173q-78 -53 -171 -35t-146 96q-14 22 -24 46h426q-26 -67 -85 -107zM131 495q0 25 22 36v0l338 214q6 3 13 4v-1l8 1l8 -1v1q7 -1 13 -4l25 -14l313 -200q22 -11 22 -36v-127q0 -11 -7.5 -19t-18.5 -8h-710q-11 0 -18.5 8t-7.5 19v127v0z" />
            <glyph glyph-name="muying" unicode="&#xe61e;"
                   d="M285.5 96q-38.5 0 -66 -27t-27.5 -65.5t27.5 -66t66 -27.5t66 27.5t27.5 66t-27.5 65.5t-66 27zM286 -36q-16 0 -27.5 11.5t-11.5 27.5t11.5 27.5t27.5 11.5t27 -11.5t11 -27.5t-11 -27.5t-27 -11.5zM667.5 96q-38.5 0 -65.5 -27t-27 -65.5t27 -66t65.5 -27.5t66 27.5
t27.5 66t-27.5 65.5t-66 27zM668 -36q-16 0 -27.5 11.5t-11.5 27.5t11.5 27.5t27.5 11.5t27.5 -11.5t11.5 -27.5t-11.5 -27.5t-27.5 -11.5zM984 742q-6 8 -15 19t-32.5 25t-47.5 12q-54 -6 -88 -94l-93 -262h-18q8 10 6 22l-73 381q-2 9 -9 15t-17 7h-16t-37 -1t-53.5 -4.5
t-62.5 -12t-68.5 -21t-67.5 -34t-63 -48.5q-105 -104 -97 -281q1 -16 16 -23h-31q-11 0 -19 -8t-8 -19q0 -99 51 -172q7 -9 18 -11t20 4.5t11 17.5t-4 21q-34 48 -40 113h695q-6 -93 -64 -156q-83 -90 -262 -90q-9 -1 -38.5 1t-90 15t-107.5 38q-10 5 -21 2t-16 -13t-2 -21
t13 -16q50 -26 113 -41t93 -17.5t54 -2.5h2q203 0 302 108q25 27 42 59.5t23.5 58.5t10.5 51t2.5 37t-0.5 16q-1 11 -8.5 18t-18.5 7h-102l87 243q21 56 42 58q11 2 23.5 -9t20.5 -22q6 -10 17 -12t20.5 4t11.5 17t-4 21zM187 468q-7 152 80 239q34 33 79 55.5t90.5 32.5
t77 13.5t59.5 3.5l69 -358q1 -6 6 -12h-477q16 8 16 26z" />
            <glyph glyph-name="fanhuidingbu6" unicode="&#xe76d;" horiz-adv-x="1176"
                   d="M622 453v0l-34 34v0v0l-35 -34v0l-552 -547l34 -34l553 547l553 -546l35 34zM34 281l553 547l553 -546l35 34l-588 580l-35 -34v0l-552 -547l34 -34v0z" />
            <glyph glyph-name="fanhuidingbu1" unicode="&#xe624;"
                   d="M896 366l-353 353q-14 14 -28 11h-6q-2 0 -7 -1.5t-8 -1.5q-10 -5 -13 -8l-315 -315q-11 -11 -11 -27.5t11 -28.5q11 -10 28.5 -10t28.5 10l251 251v-689q0 -15 11.5 -26.5t26.5 -11.5t26.5 11.5t11.5 26.5v692l290 -290q12 -12 28 -12q18 0 28 10q12 13 12 29t-12 27v0z
M942 812h-860q-15 0 -26.5 11.5t-11.5 26.5t11.5 26.5t26.5 11.5h860q15 0 26.5 -11.5t11.5 -26.5q0 -17 -11 -27.5t-27 -10.5v0zM942 812z" />
            <glyph glyph-name="meironghufu1" unicode="&#xe620;"
                   d="M659 355q66 0 105 42q7 8 7 18.5t-8 18t-18.5 7t-17.5 -8.5q-24 -25 -66.5 -25t-63.5 21q-8 7 -19 6.5t-18 -8.5t-6.5 -18.5t8.5 -17.5q39 -35 97 -35zM978 732q-2 10 -10.5 16t-19 4.5t-16.5 -10.5t-5 -19q12 -67 16.5 -105t3.5 -86.5t-13.5 -92.5t-37.5 -96l-8 -17
q-13 -26 -19 -39.5t-16.5 -37.5t-15.5 -38t-11 -35t-8 -36.5t-1.5 -33.5t4.5 -35q-42 19 -56 54q47 76 76.5 174t38.5 191v1.5v1.5q0 3 -1 5q0 3 -1 4q-1 3 -2 5l-3.5 3.5t-3.5 3t-5 2.5l-0.5 0.5t-1.5 0.5q-95 29 -164.5 100.5t-82.5 141.5q-2 11 -10.5 17t-19 4t-16.5 -11
t-4 -19q15 -78 86.5 -157.5t175.5 -116.5q-16 -132 -68.5 -254t-131.5 -175q-106 -70 -128 -70q-24 0 -107 56l-18 12q-20 14 -38.5 35t-31.5 40.5t-29.5 54t-25.5 56.5t-26 65l-11 26q-4 10 -13.5 14t-19.5 0t-14 -13.5t0 -19.5l10 -26q42 -104 67 -151q-120 71 -167 232
q-3 10 -12 15t-19.5 2t-15.5 -12t-2 -19q19 -66 50.5 -119t62 -83t65.5 -52.5t55 -30t37 -12.5q24 -28 50 -44l18 -12q48 -33 79 -49t56 -16q37 0 158 80q39 26 76 72q12 -17 29.5 -30.5t32.5 -20.5t31.5 -12t23 -6t10.5 -2h3q14 0 22 12q8 13 0 27q-12 20 -15 44.5t-0.5 45
t14.5 53.5t21 53.5t29 61.5l8 17q28 57 41.5 105.5t14.5 101t-3.5 93.5t-16.5 111zM399.5 129q-5.5 -9 -3 -19.5t11.5 -15.5q40 -23 90 -23q48 0 90 25q9 6 11.5 16.5t-3 19.5t-16 11.5t-19.5 -3.5q-17 -11 -37 -15t-34 -3t-28 5t-19 6.5t-8 4.5q-9 5 -19.5 2.5t-16 -11.5z
M157 547l96 -36l37 -124q5 -19 24 -19h1q19 0 24 19l36 124l97 36q17 7 16.5 24.5t-16.5 24.5l-97 35l-36 125q-5 19 -24 19v0q-20 0 -25 -19l-37 -125l-96 -35q-17 -7 -17 -24.5t17 -24.5zM283 587q12 4 15 17l16 53l15 -53q4 -13 16 -17l44 -16l-44 -16q-12 -5 -16 -17
l-15 -53l-16 53q-3 12 -15 17l-43 16z" />
            <glyph glyph-name="meishi2" unicode="&#xe780;"
                   d="M272 896q-89 0 -152 -74.5t-63 -179.5q0 -82 41.5 -149t107.5 -93q-38 -382 -38 -423q0 -44 30.5 -74.5t73.5 -30.5q48 0 76.5 28.5t28.5 76.5q0 51 -35 424q64 26 105 93t41 148q0 105 -63.5 179.5t-152.5 74.5zM306 445q-11 -3 -16.5 -12.5t-2.5 -19.5v-1.5t1 -0.5
q36 -381 36 -434q0 -52 -52 -52q-21 0 -36 15t-15 37q0 43 39 439q1 10 -4 17.5t-15 10.5l-0.5 0.5t-1.5 0.5q-56 14 -92.5 70t-36.5 127q0 83 47.5 142t115 59t115 -59t47.5 -142q0 -71 -36.5 -127t-92.5 -70zM940 867v0q-11 0 -18.5 -8t-7.5 -19v0v-239q0 -55 -34.5 -98
t-87.5 -55q-10 -2 -16 -11.5t-4 -19.5q0 -1 1 -1v-1q37 -388 37 -438q0 -52 -52 -52q-22 0 -37 15t-15 37q0 43 40 439v1v1q2 10 -4 19t-16 11q-54 11 -89 54.5t-35 98.5v239v0q0 11 -7.5 19t-18.5 8v0v0q-11 0 -19 -8t-8 -19v0v-239q0 -67 40 -122t103 -76
q-38 -383 -38 -426.5t30.5 -74t73.5 -30.5q48 0 76.5 28.5t28.5 76.5q0 52 -36 426q62 22 101 76.5t39 121.5v239q0 11 -8 19t-19 8zM693 561v0q11 0 18.5 8t7.5 19v0v252v0q0 11 -7.5 19t-18.5 8v0v0q-11 0 -18.5 -8t-7.5 -19v0v-252v0q0 -11 7.5 -19t18.5 -8v0zM823 561v0
q11 0 19 8t8 19v0v252v0q0 11 -8 19t-19 8v0v0q-11 0 -18.5 -8t-7.5 -19v0v-252v0q0 -11 7.5 -19t18.5 -8v0z" />
            <glyph glyph-name="Home-Garden" unicode="&#xe601;"
                   d="M968 402.5q0 54.5 -36 95.5q-32 37 -80 47h-4v4q-17 121 -109 203q-96 85 -223 85q-131 0 -228 -90q-87 -80 -103 -197l-1 -4l-3 -1q-52 -9 -86 -49q-34 -41 -34 -94q0 -54 35 -95q32 -36 80 -46l4 -1v-5l-1 -9v0v-182q0 -30 18 -53.5t46 -30.5l4 -1v-14q0 -11 7.5 -18.5
t18.5 -7.5t18.5 7.5t7.5 18.5v6v5h431v-11q0 -11 7.5 -18.5t18 -7.5t18.5 7.5t8 18.5v13l3 1q29 8 46 32q18 23 18 53v182v0v0v0v9v5l4 1q47 10 79 46q36 41 36 95.5zM237 549q17 102 96 169q38 32 84 49q48 18 99 18t99 -17q46 -18 84 -50q79 -67 96 -168l1 -5l-5 -1
q-46 -10 -78 -46q-36 -41 -36 -96v-2l2 -17v-118h-329v5v113v0l1 17v3q0 53 -34 93q-30 36 -76 47l-4 2v4zM679 213v-41h-329v41h329zM822 309q-10 0 -18 -8t-8 -18l1 -37v-182q0 -15 -10.5 -25.5t-25.5 -10.5h-494q-15 0 -25.5 10.5t-10.5 25.5v182v0l1 37q0 10 -7.5 18
t-18.5 8q-39 0 -66 27.5t-27 66t27 66t66 27.5q38 0 65.5 -27t27.5 -65v-1l-1 -17v-2v-237q0 -11 7.5 -18.5t18.5 -7.5h381q10 0 17.5 7.5t7.5 18.5v237v2l-1 17v1q0 38 27.5 65t65.5 27q39 0 66.5 -27.5t27.5 -66t-27.5 -66t-66.5 -27.5z" />
            <glyph glyph-name="chongwu" unicode="&#xe622;"
                   d="M971 350l-119 221q-23 60 -77 97t-120 37h-290q-71 0 -127 -42.5t-76 -109.5l-109 -203q-30 -56 -12 -116.5t74 -91.5q21 -11 47 -15q19 -68 75.5 -111t127.5 -43h290q72 0 128 43t76 110q27 4 50 16q56 31 74 91.5t-12 116.5zM138 186q-37 21 -49.5 62t7.5 78l58 106
v-247v-3v-2q-9 3 -16 6zM817 185q0 -67 -47.5 -114.5t-114.5 -47.5h-290q-67 0 -114.5 47.5t-47.5 114.5v308q0 67 47.5 114.5t114.5 47.5h290q67 0 114.5 -47.5t47.5 -114.5v-308zM935.5 248q-12.5 -41 -49.5 -62q-9 -4 -19 -7v2.5v3.5v253l61 -112q20 -37 7.5 -78z
M301.5 456q-20.5 0 -35 -14.5t-14.5 -35.5t14.5 -35.5t35 -14.5t35 14.5t14.5 35.5t-14.5 35.5t-35 14.5zM719.5 456q-20.5 0 -35.5 -14.5t-15 -35.5t15 -35.5t35.5 -14.5t35 14.5t14.5 35.5t-14.5 35.5t-35 14.5zM623 146q-35 0 -59 24t-24 58q0 5 -2 9q28 16 28 48
q0 24 -16 40.5t-39.5 16.5t-40 -16.5t-16.5 -40.5q0 -32 28 -48q-1 -4 -1 -9q0 -34 -24.5 -58t-58.5 -24q-10 0 -17.5 -7.5t-7.5 -18t7.5 -17.5t17.5 -7q35 0 64.5 17t47.5 45q18 -28 48 -45t65 -17q10 0 17 7t7 17.5t-7 18t-17 7.5z" />
            <glyph glyph-name="zuji" unicode="&#xe64e;"
                   d="M904 378q-13 82 -52 156t-100.5 123t-130.5 49q-146 0 -231 -85q-43 -43 -59 -84t-11 -96q2 -22 12 -41.5t30.5 -37.5t35.5 -28.5t43 -29.5q27 -17 41 -27t33.5 -26.5t31.5 -33t18 -35.5q13 -41 13 -161q0 -32 12.5 -58.5t32 -43.5t38.5 -27.5t37 -14.5l3 -1q30 -4 53 -4
q59 0 90.5 27.5t58.5 91.5q19 45 19.5 159t-18.5 228zM854 11q-22 -53 -41.5 -69.5t-58.5 -16.5q-19 0 -44 3q-8 2 -17.5 6.5t-25.5 15t-26 29.5t-10 42q0 128 -16 177q-8 25 -22.5 47t-38 41.5t-39.5 31t-45 30.5q-24 16 -36 24.5t-28.5 22t-24 26t-8.5 24.5q-4 44 7.5 74
t46.5 65q69 69 194 69q76 0 144 -83t87 -200q18 -118 18 -220t-16 -139zM186 708q-32 0 -55 -20q-30 -25 -29.5 -67.5t29.5 -77.5q38 -45 89 -45q32 0 55 19q31 27 30 71q-2 41 -30 75q-38 45 -89 45zM241 558q-12 -11 -33.5 -5t-36.5 23q-15 19 -17 40t11 32q8 7 21 7
q27 0 49 -26q16 -20 17 -42q1 -20 -11 -29zM333 686q24 0 42 15q24 20 23 54q-1 31 -22 56q-22 26 -54.5 31.5t-54.5 -13.5t-22.5 -51.5t21.5 -58.5q28 -33 67 -33zM301 789q4 2 8 2h1q14 0 26 -14q9 -11 10 -23q0 -9 -5 -13q-4 -5 -14.5 -2t-19.5 14q-9 10 -10 21t4 15z
M490 739q25 0 43 15q22 19 22.5 51t-21.5 59q-22 25 -54.5 30.5t-54.5 -12.5q-24 -21 -23 -55q1 -30 22 -55q28 -33 66 -33zM459 841q3 3 8 3v0q15 0 26 -14q9 -10 10 -21t-4 -15q-4 -5 -15 -2.5t-20 13.5q-9 12 -10 24q0 8 5 12zM644 739q11 0 21 4q28 11 37 42q9 28 -3 57
q-9 24 -28.5 39t-41.5 15q-11 0 -21 -4q-26 -10 -36.5 -39t1.5 -60q9 -24 28.5 -39t42.5 -15zM624 850q2 1 5 1q8 0 16 -6.5t13 -18.5q5 -15 1 -28q-3 -10 -10 -13q-8 -3 -18.5 3.5t-15.5 20.5q-5 15 -2 26.5t11 14.5zM779 682h5q27 2 43 27q15 22 13 51q-3 31 -22.5 51
t-46.5 18q-27 -3 -43 -27q-15 -23 -12.5 -52t20.5 -48.5t43 -19.5zM761 780q6 9 15 9q8 0 15.5 -9t8.5 -23q2 -15 -6 -26q-5 -9 -13 -10h-2q-8 0 -15.5 9t-8.5 23q-2 16 6 27z" />
            <glyph glyph-name="jiazhuangjingyan" unicode="&#xe72b;"
                   d="M512 -110h-182q-11 0 -18.5 7.5t-7.5 18.5v286v0q0 11 7.5 18.5t18.5 7.5v0h182q11 0 18.5 -7.5t7.5 -18.5v0v-286q0 -11 -7.5 -18.5t-18.5 -7.5zM356 -58h130v234h-130v-234zM434 176v0q-11 0 -18.5 7.5t-7.5 18.5v125v0q0 10 6 17t15 9l499 92v199h-78q-11 0 -18.5 7.5
t-7.5 18.5t7.5 18.5t18.5 7.5h104v0q11 0 18.5 -7.5t7.5 -18.5v0v-247v0q0 -10 -6 -17t-15 -9l-499 -91v-104q0 -11 -7.5 -18.5t-18.5 -7.5zM824 488h-728q-11 0 -18.5 7.5t-7.5 18.5v338q0 11 7.5 18.5t18.5 7.5h728q11 0 18.5 -7.5t7.5 -18.5v-338q0 -11 -7.5 -18.5
t-18.5 -7.5zM122 540h676v286h-676v-286z" />
            <glyph glyph-name="zuji1" unicode="&#xe62d;"
                   d="M665 680q-64 29 -150 31q-68 1 -121 -29q-75 -41 -85 -121q-13 -108 51 -185q23 -28 38 -48q38 -53 22 -119q-9 -38 -31 -79q-14 -27 -20 -56q-7 -38 1 -75q12 -51 45 -85q46 -46 111 -40q89 9 139 77q29 39 50 89q52 117 85 257q21 85 14 163q0 3 -1 10t-2 13t-2 11
q-25 132 -144 186zM776 453q7 -72 -17 -172q-27 -113 -66 -202l-4.5 -11.5t-9 -21t-13.5 -26t-18 -29.5t-23.5 -28t-30 -25.5t-36 -18t-42.5 -8.5q-41 -2 -76.5 39t-32.5 82q2 39 10.5 67.5t21 52.5t17.5 38q8 22 6.5 60.5t-15.5 69.5q-7 16 -25.5 41.5t-35 47t-29 52.5
t-11.5 60q1 21 4 36.5t9.5 33.5t21 32t36.5 24q40 18 90 20t85 -5.5t60 -19.5q56 -25 86 -70.5t38 -118.5zM278 829q-37 15 -70 -0.5t-43 -54.5q-12 -44 12 -88t68 -58q36 -11 66.5 6.5t38.5 54.5q8 33 -6 70q-20 50 -66 70zM314 707q-4 -23 -22 -34t-40 -5q-26 7 -41.5 33
t-9.5 52q6 23 25 33.5t42 1.5q28 -11 41 -40q9 -22 5 -41zM507 872q-19 22 -45.5 22t-45.5 -22q-24 -27 -22 -67.5t29 -65.5q19 -17 43 -16t42 20q28 31 23 76q-5 33 -24 53zM500 814q3 -25 -12 -42q-10 -11 -23.5 -11.5t-23.5 9.5q-15 13 -16.5 36t12.5 37q10 12 24.5 12
t25.5 -12q11 -10 13 -29zM716 826q-11 22 -32.5 28t-42.5 -7q-27 -17 -34.5 -51.5t9.5 -60.5q12 -19 32 -23.5t39 6.5q30 19 36 58q4 29 -7 50zM696 778q-3 -20 -19 -30q-10 -6 -20 -3.5t-17 12.5q-8 14 -4 32t17 26q11 7 22.5 4t17.5 -15q5 -11 3 -26zM858 717
q-10 21 -29 27.5t-39 -4.5q-25 -14 -33.5 -44.5t5.5 -55.5q10 -18 28 -23t36 5q28 15 36 50q4 26 -4 45zM833 677q-4 -16 -17 -23q-18 -10 -29 9q-6 11 -2 25t15 20q9 5 18 2t13 -12t2 -21z" />
            <glyph glyph-name="diannaodianqi" unicode="&#xe60b;"
                   d="M905 843h-786q-49 0 -84 -35t-35 -85v-509q0 -49 35 -84t84 -35h362v-102v-2.5t1 -2.5h-380q-13 0 -22 -9t-9 -22v0v0q0 -13 9 -22.5t22 -9.5v0h820v0q13 0 22 9.5t9 22.5v0v0q0 13 -9 22t-22 9v0h-380q1 1 1 2.5v2.5v102h362q49 0 84 35t35 84v509q0 50 -35 85t-84 35z
M961 214q0 -23 -16.5 -39.5t-39.5 -16.5h-786q-23 0 -39.5 16.5t-16.5 39.5v509q0 24 16.5 40.5t39.5 16.5h786q23 0 39.5 -16.5t16.5 -40.5v-509z" />
            <glyph glyph-name="xiajiantou" unicode="&#xe60a;" horiz-adv-x="1025"
                   d="M465 -69v-1q19 -18 45 -18h1q26 1 44 19l357 362q7 8 7 19t-7.5 18.5t-18.5 7.5t-19 -8l-336 -341v846q0 11 -8 18.5t-18.5 7.5t-18.5 -7.5t-8 -18.5v-850l-341 347q-8 7 -19 7.5t-18.5 -7.5t-7.5 -18.5t7 -18.5z" />
            <glyph glyph-name="fanhuidingbu7" unicode="&#xe666;"
                   d="M892 834h-759v-47h759v47zM537 739h-1v0h-47v-1l-2 1l-402 -394l33 -34l371 363v-741h47v741l370 -363l33 34z" />
            <glyph glyph-name="arrow-down" unicode="&#xe607;"
                   d="M919 326q0 10 -7 17t-17 7q-11 0 -17 -7l-342 -342v809q0 10 -7.5 17t-17 7t-17 -7t-7.5 -17v-809l-341 342q-6 7 -17 7q-10 0 -17 -7t-7 -17t7 -17l358 -358q17 -17 42 -17t42 17l358 359q7 7 7 16z" />
            <glyph glyph-name="jujia1" unicode="&#xe6bb;"
                   d="M776 -124h-514q-30 0 -51.5 21.5t-21.5 51.5t21.5 51.5t51.5 21.5h171v251q0 11 8 19t19.5 8t19.5 -8t8 -19v-279q0 -11 -8 -19t-20 -8h-198q-8 0 -13 -5.5t-5 -13t5 -12.5t13 -5h514q8 0 13 5t5 12.5t-5 13t-13 5.5h-199q-12 0 -20 8t-8 19v279q0 11 8 19t19.5 8
t19.5 -8t8 -19v-251h172q30 0 51.5 -21.5t21.5 -51.5t-21.5 -51.5t-51.5 -21.5zM948 336h-871q-29 0 -45 23t-7 49l162 450q6 16 20 26t31 10h548q18 0 32 -10t20 -26l162 -450q9 -26 -7 -49t-45 -23zM78 391h869l-161 448h-548zM749 601q-19 0 -26 18l-40 106
q-4 10 0.5 20.5t15.5 14.5t21 -0.5t15 -15.5l40 -106q4 -11 -0.5 -21t-15.5 -14q-5 -2 -10 -2v0zM774.5 509q-11.5 0 -19.5 8t-8 19.5t8 19.5t19.5 8t19.5 -8t8 -19.5t-8 -19.5t-19.5 -8z" />
            <glyph glyph-name="quanbu2" unicode="&#xe60c;"
                   d="M392 424h-247q-37 0 -64 27t-27 64v247q0 38 27 64.5t64 26.5h247q38 0 64.5 -26.5t26.5 -64.5v-247q0 -37 -26.5 -64t-64.5 -27zM145 793q-12 0 -21 -9t-9 -22v-247q0 -13 9 -21.5t21 -8.5h247q13 0 22 8.5t9 21.5v247q0 13 -9 22t-22 9h-247zM893 424h-247
q-37 0 -64 27t-27 64v247q0 38 27 64.5t64 26.5h247q38 0 64.5 -26.5t26.5 -64.5v-247q0 -37 -26.5 -64t-64.5 -27zM646 793q-13 0 -21.5 -9t-8.5 -22v-247q0 -13 8.5 -21.5t21.5 -8.5h247q13 0 22 8.5t9 21.5v247q0 13 -9 22t-22 9h-247zM392 -58h-247q-39 0 -66.5 27.5
t-27.5 66.5v247q0 39 27.5 66.5t66.5 27.5h247q39 0 66.5 -27.5t27.5 -66.5v-247q0 -39 -27.5 -66.5t-66.5 -27.5zM145 310q-11 0 -19 -8t-8 -19v-247q0 -11 8 -19t19 -8h247q12 0 19.5 8t7.5 19v247q0 11 -7.5 19t-19.5 8h-247zM769.5 -55q-88.5 0 -151.5 63t-63 151.5
t63 151.5t151.5 63t151.5 -63t63 -151.5t-63 -151.5t-151.5 -63zM769.5 314q-63.5 0 -108.5 -45.5t-45 -109t45 -109t108.5 -45.5t109 45.5t45.5 109t-45.5 109t-109 45.5zM956 -58v0q-12 0 -21 9l-58 57q-8 9 -8 21t8.5 21t20.5 9t21 -9l58 -58q8 -8 8 -20.5t-8.5 -21
t-20.5 -8.5v0v0z" />
            <glyph glyph-name="paixu" unicode="&#xe682;"
                   d="M294 832q0 18 13 30.5t30 12.5q19 0 31 -12t12 -31v-896q0 -18 -13 -30.5t-30 -12.5q-19 0 -31 12t-12 31v896zM363 794l-244 -239q-12 -13 -29 -13t-30 12.5t-13 30t13 29.5l239 239q12 13 29.5 13t29.5 -13q16 -12 17 -29.5t-12 -29.5zM730 -64q0 -18 -13 -30.5
t-30 -12.5q-19 0 -31 12t-12 31v896q0 18 13 30.5t30 12.5q19 0 31 -12t12 -31v-896zM661 -21l239 239q13 12 30 12t30 -12.5t13 -29.5t-13 -30l-235 -243q-12 -13 -29.5 -13t-29.5 13q-16 12 -17 31.5t12 32.5z" />
            <glyph glyph-name="quanbu3" unicode="&#xe609;"
                   d="M254 347q-92 0 -157 -64.5t-65 -156.5t65 -157t156.5 -65t156.5 65t65 157v171q0 21 -14.5 35.5t-35.5 14.5h-171zM770 347h-171q-21 0 -35.5 -14.5t-14.5 -35.5v-171q0 -92 65 -157t156.5 -65t156.5 65t65 157t-65 156.5t-157 64.5v0zM770 292q69 0 118 -49
q49 -48 49 -117v0v-1q0 -68 -49 -117t-117 -49h-1v0q-69 0 -117 49q-49 49 -49 117v1v166h166zM770 864q-91 0 -156 -65t-65 -157v-171q0 -21 14.5 -35.5t35.5 -14.5h171q91 1 155 65.5t64 155.5t-64 156t-155 66v0zM773 812q69 0 118 -49t49 -118v0q0 -70 -49 -119
t-118 -49h-1h-167v168q0 69 49 118t118 49h1v0zM254 291h165v-165v0q0 -68 -48 -117q-48 -48 -116 -48h-1v0q-68 0 -117 48q-48 49 -48 117v0q0 69 48 117q49 48 117 48v0v0zM254 864q-92 0 -157 -65t-65 -156.5t65 -156.5t157 -65h171q21 0 35.5 14.5t14.5 35.5v171v0
q0 92 -65 157t-156 65v0zM254 811q69 0 119 -49q49 -49 49 -119v-1v-168h-168h-1q-70 0 -119 49t-49 119v0q0 70 49 120q49 49 119 49h1v0z" />
            <glyph glyph-name="shenghuo" unicode="&#xe605;"
                   d="M434 -3q-117 0 -216.5 58t-157.5 157t-58 217v15h864v-15q0 -118 -58 -217t-157.5 -157t-216.5 -58zM33 413q4 -105 58.5 -193.5t145.5 -140t197 -51.5t197 51.5t145 140t58 193.5h-801v0zM227 127q-97 72 -142 184l29 11q42 -103 131 -171zM912 246q-59 0 -92 49l26 17
q24 -35 66 -35q32 0 55.5 23.5t23.5 56t-23.5 56t-55.5 23.5q-29 0 -50 -18l-20 24q30 25 70 25q45 0 77.5 -32.5t32.5 -78t-32.5 -78t-77.5 -32.5zM293 505q-11 0 -15 10q-8 23 -8.5 43t7 38t14.5 28t20 27t19.5 27t13 26.5t6.5 34.5q0 69 -36 106q-12 10 -2 21.5t21 2.5
q3 -2 6.5 -5.5t11.5 -15.5t14 -25.5t11 -36t5 -47.5q0 -22 -8 -43.5t-15.5 -33t-22.5 -30.5q-12 -15 -17.5 -23.5t-12 -22.5t-5.5 -28.5t7 -32.5q2 -6 -0.5 -11.5t-8.5 -7.5q-3 -1 -5 -1zM416 505q-11 0 -14 10q-9 23 -9.5 43t7.5 38t14.5 28t20 27t20 27t13 26.5t6.5 34.5
q0 33 -10 60t-16 34.5t-11 11.5q-11 10 -1.5 21.5t21.5 1.5q3 -1 6.5 -5t11.5 -15.5t14 -25t11 -36t5 -47.5q0 -23 -8 -44t-15.5 -32.5t-22.5 -30.5q-13 -16 -18.5 -24t-11.5 -22t-5.5 -28.5t7.5 -32.5q2 -6 -1 -11.5t-9 -7.5q-3 -1 -5 -1zM540 505q-11 0 -15 10
q-8 23 -8.5 43t7.5 38t14.5 28t20 27t20 27t13 26.5t6.5 34.5q0 33 -10 60t-16 34.5t-11 11.5q-12 10 -2 21.5t22 1.5q2 -1 5.5 -5t11.5 -15.5t14 -25t11 -36t5 -47.5q0 -23 -8 -44t-15.5 -32.5t-22.5 -30.5q-12 -16 -17.5 -24t-11.5 -22t-5.5 -28.5t6.5 -32.5
q2 -6 -0.5 -11.5t-8.5 -7.5q-3 -1 -5 -1zM86 -73h696v-31h-696v31z" />
            <glyph glyph-name="jiantoushang" unicode="&#xe6c8;"
                   d="M306 576l22 -21q10 -11 21 0l132 132v-693q0 -6 4.5 -10.5t10.5 -4.5h30q7 0 11 4.5t4 10.5v693l133 -133q11 -11 21 0l22 21q10 11 0 22l-189 188q-8 8 -18 2q-9 4 -16 -3l-188 -187q-10 -11 0 -21z" />
            <glyph glyph-name="shangjiantou" unicode="&#xe919;" horiz-adv-x="1025"
                   d="M559 837v1q-19 18 -45 18h-1q-26 -1 -44 -19l-357 -362q-7 -8 -7 -19t7.5 -18.5t18.5 -7.5t19 8l336 341v-846q0 -11 8 -18.5t18.5 -7.5t18.5 7.5t8 18.5v850l341 -347q8 -7 19 -7.5t18.5 7.5t7.5 18.5t-7 18.5z" />
            <glyph glyph-name="arrow-down-copy" unicode="&#xe91a;"
                   d="M105 442q0 -10 7 -17t17 -7q11 0 17 7l342 342v-809q0 -10 7.5 -17t17 -7t17 7t7.5 17v809l341 -342q6 -7 17 -7q10 0 17 7t7 17t-7 17l-358 358q-17 17 -42 17t-42 -17l-358 -359q-7 -7 -7 -16z" />
        </font>
</defs>
</svg>
